<svg xmlns="http://www.w3.org/2000/svg" viewBox="0 0 128 128"><circle cx="64" cy="64" r="55" style="fill:#fdf823"/><path d="M51.14,51.14a8.57,8.57,0,1,1-8.57-8.57,8.57,8.57,0,0,1,8.57,8.57" style="fill:#918807"/><path d="M94,51.14a8.57,8.57,0,1,1-8.57-8.57A8.57,8.57,0,0,1,94,51.14" style="fill:#918807"/><path d="M64,4a60,60,0,1,0,60,60A60,60,0,0,0,64,4Zm0,111.43A51.43,51.43,0,1,1,115.43,64,51.49,51.49,0,0,1,64,115.43Z" style="fill:#918807"/><path d="M76.86,85.43H51.14a4.29,4.29,0,0,0,0,8.57H76.86a4.29,4.29,0,0,0,0-8.57Z" style="fill:#918807"/></svg>