<svg xmlns="http://www.w3.org/2000/svg" viewBox="0 0 128 128"><circle cx="64" cy="64" r="55" style="fill:#f64138"/><path d="M51.14,51.14a8.57,8.57,0,1,1-8.57-8.57,8.57,8.57,0,0,1,8.57,8.57" style="fill:#930f0b"/><path d="M94,51.14a8.57,8.57,0,1,1-8.57-8.57A8.57,8.57,0,0,1,94,51.14" style="fill:#930f0b"/><path d="M64,4a60,60,0,1,0,60,60A60,60,0,0,0,64,4Zm0,111.43A51.43,51.43,0,1,1,115.43,64,51.49,51.49,0,0,1,64,115.43Z" style="fill:#930f0b"/><path d="M39.76,91A4.29,4.29,0,0,0,45.82,97a25.73,25.73,0,0,1,36.36,0A4.29,4.29,0,1,0,88.24,91a34.31,34.31,0,0,0-48.48,0Z" style="fill:#930f0b"/></svg>