<svg xmlns="http://www.w3.org/2000/svg" viewBox="0 0 128 128"><circle cx="64" cy="64" r="55" style="fill:#01d302"/><path d="M51.14,51.14a8.57,8.57,0,1,1-8.57-8.57,8.57,8.57,0,0,1,8.57,8.57" style="fill:#026802"/><path d="M94,51.14a8.57,8.57,0,1,1-8.57-8.57A8.57,8.57,0,0,1,94,51.14" style="fill:#026802"/><path d="M89.33,72.57H38.67a3.43,3.43,0,0,0-3.38,4,29.11,29.11,0,0,0,57.42,0,3.45,3.45,0,0,0-3.38-4ZM64,94A22.17,22.17,0,0,1,43.11,79.43H84.89A22.18,22.18,0,0,1,64,94Z" style="fill:#026802"/><path d="M64,4a60,60,0,1,0,60,60A60,60,0,0,0,64,4Zm0,111.43A51.43,51.43,0,1,1,115.43,64,51.49,51.49,0,0,1,64,115.43Z" style="fill:#026802"/></svg>