<svg xmlns="http://www.w3.org/2000/svg" viewBox="0 0 128 128"><path d="M64,4a60,60,0,1,0,30,8A60,60,0,0,0,64,4ZM35.24,49.9a4.27,4.27,0,0,1,0-6.08,14.95,14.95,0,0,1,23.23,0,4.3,4.3,0,1,1-6.09,6.08c-4-4.28-7-4.28-11.05,0a4.29,4.29,0,0,1-6.09,0ZM88.09,93.06A38.62,38.62,0,0,1,64,102.57,38.57,38.57,0,0,1,39.91,93.1,4.3,4.3,0,0,1,41.17,86a4.32,4.32,0,0,1,4.06.38c12.86,10.24,24.73,10.24,37.54,0h0a4.29,4.29,0,0,1,6.3.45,4.28,4.28,0,0,1-1,6.23ZM92.76,49.9h0a4.29,4.29,0,0,1-6.09,0c-4-4.29-7-4.29-11.06,0A4.31,4.31,0,0,1,68.41,48a4.33,4.33,0,0,1,1.12-4.16,15,15,0,0,1,23.23,0,4.31,4.31,0,0,1,0,6.09Z" style="fill:#006837"/></svg>