<svg xmlns="http://www.w3.org/2000/svg" viewBox="0 0 560.19 501.04" fill="#fff"><path d="M549.09,207.26,316.41,13.44a56,56,0,0,0-72.79,0l-19.55,16.3Q117.62,118.56,10.77,207.43A28.46,28.46,0,0,0,0,230.78v33.94c0,13.38,4,17.13,17.53,16.8h48c7.73,0,9.13,1.46,9.18,9.24V462.23c0,24.19,14.56,38.86,38.87,38.81h93.52a36.9,36.9,0,0,0,6.55-.56V375.15H346.43V500.48a33.32,33.32,0,0,0,6.22.5h95.2a35.49,35.49,0,0,0,37.52-37.63v-172c0-8.23,1.29-9.63,9.4-9.63h51A12.49,12.49,0,0,0,560,267.35V229.66a28,28,0,0,0-10.93-22.4Z"/><path d="M376.39,43.35c16.8,13.83,33.61,28,50.4,41.83l43.63,36.57V21.4A17.58,17.58,0,0,0,452.5,4.6q-31.25-.51-62.5,0a17.75,17.75,0,0,0-17.86,18.93c0,3.86.28,7.73,0,11.53a9.23,9.23,0,0,0,4.25,8.29Z"/></svg>